<?xml version="1.0" encoding="UTF-8"?>
<svg id="Capa_1" xmlns="http://www.w3.org/2000/svg" viewBox="0 0 595.28 227.74">
  <defs>
    <style>
      .cls-1 {
        font-family: LiSungLight, 'Apple LiSung';
        font-size: 28px;
      }

      .cls-1, .cls-2 {
        fill: #1d1d1b;
      }
    </style>
  </defs>
  <rect class="cls-2" x="348.85" y="110.6" width="32.07" height="1.65" transform="translate(253.46 476.3) rotate(-90)"/>
  <text class="cls-1" transform="translate(376.19 107.64)"><tspan x="0" y="0">Aurora</tspan></text>
  <text class="cls-1" transform="translate(373.42 129.5)"><tspan x="0" y="0">Art</tspan></text>
  <g>
    <path class="cls-2" d="M144.66,136.31c3.78,0,6.4-.66,7.86-1.98,1.46-1.32,2.19-3.76,2.19-7.33v-44.62c0-3.71-.71-6.21-2.14-7.49-1.43-1.28-4.07-1.93-7.92-1.93v-1.6h27.18c12.77,0,22.63,2.91,29.59,8.72,6.96,5.81,10.43,14.07,10.43,24.77,0,9.84-3.35,17.82-10.06,23.91-6.71,6.1-16.23,9.15-28.57,9.15h-28.57v-1.6ZM162.42,130.96c0,2.71,2.03,4.07,6.1,4.07,10.7,0,19.03-2.57,24.98-7.7,5.96-5.14,8.93-12.59,8.93-22.36,0-9.27-2.93-16.71-8.77-22.31-5.85-5.6-14.66-8.4-26.43-8.4-3.21,0-4.81,1.32-4.81,3.96v52.75Z"/>
    <path class="cls-2" d="M244.12,116.11c-.97,3.2-2.76,5.89-5.38,8.07s-5.65,3.27-9.09,3.27c-3.83,0-6.92-1.36-9.27-4.07-2.35-2.71-3.53-6.45-3.53-11.2,0-5.19,1.37-9.28,4.11-12.29,2.74-3.01,6.02-4.51,9.85-4.51s6.54,1.08,8.73,3.24c2.18,2.16,3.27,5.15,3.27,8.98h-22.4c0,5.04.99,8.93,2.98,11.67,1.99,2.74,4.63,4.11,7.93,4.11,4.6,0,8.51-2.59,11.71-7.78l1.09.51ZM237.07,106c-.82-5.62-3.39-8.43-7.71-8.43-4.8,0-7.71,2.81-8.73,8.43h16.43Z"/>
    <path class="cls-2" d="M266.16,105.35c-1.02-5.57-3.59-8.36-7.71-8.36-1.7,0-3.07.55-4.11,1.64-1.04,1.09-1.56,2.22-1.56,3.38,0,1.89,1.04,3.44,3.13,4.65l7.34,4.36c4.02,2.62,6.03,5.2,6.03,7.74s-.99,4.63-2.98,6.25c-1.99,1.62-4.29,2.44-6.91,2.44-1.21,0-2.73-.25-4.54-.76s-2.98-.76-3.49-.76-1.03.39-1.56,1.16h-.73v-10.69h.95c1.5,6.4,4.48,9.6,8.94,9.6,4.02,0,6.03-1.82,6.03-5.45,0-1.94-1.19-3.59-3.56-4.94l-3.93-2.25c-3.88-2.28-6.27-4.06-7.16-5.34-.9-1.28-1.35-2.7-1.35-4.25,0-2.37.87-4.36,2.62-5.96,1.75-1.6,4.05-2.4,6.91-2.4,1.11,0,3.2.53,6.25,1.6.48,0,.95-.34,1.38-1.02h.58l.29,9.38h-.87Z"/>
    <path class="cls-2" d="M272.14,125.71c2.28,0,3.84-.37,4.69-1.13.85-.75,1.27-2.41,1.27-4.98v-15.85c0-2.81-.99-4.22-2.98-4.22-.63,0-1.53.1-2.69.29v-.87c3.93-1.26,7.25-2.45,9.96-3.56l.29.22v23.99c0,2.38.36,3.99,1.09,4.84.73.85,2.25,1.27,4.58,1.27v.87h-16.21v-.87ZM279.84,80.27c2.08,0,3.13,1.04,3.13,3.13s-1.04,3.13-3.13,3.13-3.13-1.04-3.13-3.13,1.04-3.13,3.13-3.13Z"/>
    <path class="cls-2" d="M313.18,99.82c.87,2.08,1.31,4.14,1.31,6.18,0,2.91-1.04,5.24-3.13,6.98-2.08,1.74-4.48,2.62-7.2,2.62l-3.49-.36c-.78.1-1.67.67-2.69,1.71-1.02,1.04-1.53,1.88-1.53,2.51,0,1.36,1.79,2.04,5.38,2.04l8.29.36c5.28,0,7.93,2.18,7.93,6.54,0,3.1-1.79,5.71-5.38,7.82-3.59,2.11-7.32,3.16-11.2,3.16-3.3,0-6.03-.61-8.22-1.82-2.18-1.21-3.27-2.69-3.27-4.44,0-2.33,2.23-5.09,6.69-8.29-2.47-.82-3.71-1.87-3.71-3.13,0-1.55,1.89-3.9,5.67-7.05-3.98-1.84-5.96-4.65-5.96-8.43,0-3.3,1.08-5.93,3.24-7.89,2.16-1.96,4.79-2.94,7.89-2.94,1.7,0,3.49.4,5.38,1.2,1.89.8,3.39,1.2,4.51,1.2h4.94v2.04h-5.45ZM304.31,136.25c3.64,0,6.54-.69,8.73-2.07,2.18-1.38,3.27-2.99,3.27-4.84,0-2.37-2.69-3.56-8.07-3.56-4.12,0-7.51-.24-10.18-.73-2.71,3.15-4.07,5.31-4.07,6.47s.87,2.24,2.62,3.24c1.75.99,4.31,1.49,7.71,1.49ZM304.75,114.22c1.84,0,3.28-.68,4.33-2.04,1.04-1.36,1.56-2.88,1.56-4.58,0-2.86-.7-5.36-2.11-7.49-1.41-2.13-3.3-3.2-5.67-3.2-1.55,0-2.93.57-4.14,1.71-1.21,1.14-1.82,2.63-1.82,4.47,0,7.42,2.62,11.12,7.85,11.12Z"/>
    <path class="cls-2" d="M327.49,103.75c0-3.05-.99-4.58-2.98-4.58-.92,0-1.58.1-1.96.29v-1.02c2.76-.73,5.72-1.67,8.87-2.84l.44.15v5.6c4.27-3.97,7.78-5.96,10.54-5.96,4.94,0,7.42,3.42,7.42,10.25v15.63c0,2.81,1.6,4.36,4.8,4.65v.87h-14.25v-.87c3.25-.29,4.87-2.25,4.87-5.89v-14.25c0-4.41-1.94-6.62-5.82-6.62-2.04,0-4.48,1.43-7.34,4.29v18.76c0,2.47,1.7,3.71,5.09,3.71v.87h-14.47v-.87c3.2,0,4.8-1.77,4.8-5.31v-16.87Z"/>
  </g>
</svg>